<svg xmlns="http://www.w3.org/2000/svg" xml:space="preserve" viewBox="0 0 148.4 69.3">
  <path fill="#15504b" d="M24.5 48.7c-1.1-.8-2.4-1.5-3.7-2l-3.7-1.3-2.8-.9c-.8-.3-1.5-.6-2-1-.5-.3-.9-.8-1.2-1.2a3 3 0 0 1-.4-1.7c0-.7.2-1.4.5-1.9s.8-1 1.3-1.3l1.8-.8c1.9-.5 3.7-.3 5.6.6a8 8 0 0 1 2.7 2l.6.8 5.5-6.1-.6-.6a14.6 14.6 0 0 0-5.4-3.2 19.5 19.5 0 0 0-11.2-.4c-1.7.5-3.3 1.2-4.6 2.1-1.4 1-2.5 2.2-3.3 3.6a9.4 9.4 0 0 0-1.5 5.3 9.6 9.6 0 0 0 3.3 7.9c1 .9 2 1.6 3.2 2.1L12 52l3.3 1.1c1 .3 1.8.7 2.5 1.1.7.4 1.2.9 1.6 1.4.4.5.5 1.1.5 1.9a4 4 0 0 1-1.8 3.5c-.6.4-1.2.7-1.9.8-2.1.5-4.1.3-6.3-.8a9 9 0 0 1-3.3-2.7l-.6-.8-6 5.6.5.6c1.6 1.8 3.6 3.3 6 4.2a19 19 0 0 0 12.8.6c1.7-.5 3.3-1.3 4.6-2.3 1.3-1.1 2.4-2.4 3.2-4 .8-1.6 1.2-3.5 1.2-5.6 0-2-.4-3.6-1.1-5-.6-.9-1.6-2-2.7-2.9zm30.3-18.2-.2-.5h-6.8L30.9 68.7h9.2l3.3-8.5h14.9l3.5 8.5h9.4L54.8 30.5zm.7 22.4h-9.1L51 41.1l4.5 11.8zm45.5-2.5a9.5 9.5 0 0 0-3.8-2.4c1.1-.6 2-1.3 2.8-2.2 1.3-1.5 2-3.4 2-5.7 0-1.8-.4-3.4-1.1-4.7a9.7 9.7 0 0 0-2.8-3.2c-1.1-.8-2.5-1.4-3.9-1.8a21 21 0 0 0-4.3-.5H75.3v38.7h13.4c1.8 0 3.6-.2 5.3-.6 1.8-.4 3.4-1 4.8-1.9a9.8 9.8 0 0 0 3.4-3.6c.9-1.5 1.3-3.4 1.3-5.5 0-2.7-.8-4.9-2.5-6.6zM83.6 45v-7.9h3.6c2.3 0 4.1.3 5.1.9.9.5 1.4 1.5 1.4 2.8 0 1.3-.5 2.3-1.4 3-1 .8-2.5 1.1-4.5 1.1h-4.2zm11.6 11.7c0 1-.2 1.8-.6 2.4-.5.6-1 1.1-1.7 1.4-.7.3-1.6.6-2.4.7-1 .2-1.9.2-2.7.2h-4.2v-9h4.5c2.5 0 4.4.3 5.6 1 1 .6 1.5 1.7 1.5 3.3z" class="st0"/>
  <path fill="#aecc52" d="M110.3 65.8c0-1 .8-1.8 1.8-1.8s1.8.8 1.8 1.8-.8 1.8-1.8 1.8-1.8-.8-1.8-1.8m15.2 0c0-1 .8-1.8 1.8-1.8s1.8.8 1.8 1.8-.8 1.8-1.8 1.8-1.8-.8-1.8-1.8m15.2 0c0-1.3 1.1-2.4 2.4-2.4 1.3 0 2.4 1.1 2.4 2.4 0 1.3-1.1 2.4-2.4 2.4a2.4 2.4 0 0 1-2.4-2.4m-30.4-14.9c0-1 .8-1.8 1.8-1.8s1.8.8 1.8 1.8-.8 1.8-1.8 1.8-1.8-.8-1.8-1.8m14.6 0c0-1.3 1.1-2.4 2.4-2.4 1.3 0 2.4 1.1 2.4 2.4 0 1.3-1.1 2.4-2.4 2.4a2.4 2.4 0 0 1-2.4-2.4m14.7 0c0-1.9 1.6-3.5 3.5-3.5s3.5 1.6 3.5 3.5-1.6 3.5-3.5 3.5a3.5 3.5 0 0 1-3.5-3.5m-29.9-15.2c0-1.3 1.1-2.4 2.4-2.4 1.3 0 2.4 1.1 2.4 2.4 0 1.3-1.1 2.4-2.4 2.4a2.4 2.4 0 0 1-2.4-2.4m13.7 0a4 4 0 0 1 4-4 4 4 0 0 1 4 4 4 4 0 0 1-4 4 4 4 0 0 1-4-4m.9-15.2a3.8 3.8 0 1 1 7.6 0 3.8 3.8 0 0 1-7.6 0m-16.6 0c0-2.4 2-4.4 4.4-4.4 2.4 0 4.4 2 4.4 4.4 0 2.4-2 4.4-4.4 4.4-2.4 0-4.4-2-4.4-4.4m1.4-15.2a3 3 0 0 1 3-3 3 3 0 0 1 3 3 3 3 0 0 1-3 3 3 3 0 0 1-3-3m31.2 30.4a2.9 2.9 0 1 1 5.8 0 2.9 2.9 0 0 1-5.8 0M122.9 5.3c0-2.4 2-4.4 4.4-4.4 2.4 0 4.4 2 4.4 4.4 0 2.4-2 4.4-4.4 4.4-2.4 0-4.4-2-4.4-4.4m-43 15.2c0-1 .8-1.8 1.8-1.8s1.8.8 1.8 1.8-.8 1.8-1.8 1.8-1.8-.8-1.8-1.8m14.6 0c0-1.3 1.1-2.4 2.4-2.4 1.3 0 2.4 1.1 2.4 2.4 0 1.3-1.1 2.4-2.4 2.4a2.4 2.4 0 0 1-2.4-2.4M79.3 5.3c0-1.3 1.1-2.4 2.4-2.4 1.3 0 2.4 1.1 2.4 2.4 0 1.3-1.1 2.4-2.4 2.4a2.4 2.4 0 0 1-2.4-2.4m14.1 0c0-1.9 1.6-3.5 3.5-3.5s3.5 1.6 3.5 3.5-1.6 3.5-3.5 3.5a3.5 3.5 0 0 1-3.5-3.5m44.4 0c0-2.9 2.4-5.3 5.3-5.3s5.3 2.4 5.3 5.3-2.4 5.3-5.3 5.3a5.3 5.3 0 0 1-5.3-5.3m.9 15.2c0-2.4 2-4.4 4.4-4.4 2.4 0 4.4 2 4.4 4.4 0 2.4-2 4.4-4.4 4.4-2.4 0-4.4-2-4.4-4.4" class="st1"/>
</svg>
